PathFileType	4	(X/Y/Z)	 2.2Hz3min.trc
DataRate	CameraRate	NumFrames	NumMarkers	Units	OrigDataRate	OrigDataStartFrame	OrigNumFrames
200	200	9	35	m	200	751	1000
Frame#	Time	C7			LSH			RSH			MAN			RASI			LASI			HIPR			HIPL			RPSI			LPSI			COX			RTHI1			RTHI2			RTHI3			RTHI4			RSHA1			RSHA2			RSHA3			RSHA4			RHEEL			RMET5			RMET1			RTOE			LTHI1			LTHI2			LTHI3			LTHI4			LSHA1			LSHA2			LSHA3			LSHA4			LHEEL			LMET5			LMET1			LTOE			
		X1	Y1	Z1	X2	Y2	Z2	X3	Y3	Z3	X4	Y4	Z4	X5	Y5	Z5	X6	Y6	Z6	X7	Y7	Z7	X8	Y8	Z8	X9	Y9	Z9	X10	Y10	Z10	X11	Y11	Z11	X12	Y12	Z12	X13	Y13	Z13	X14	Y14	Z14	X15	Y15	Z15	X16	Y16	Z16	X17	Y17	Z17	X18	Y18	Z18	X19	Y19	Z19	X20	Y20	Z20	X21	Y21	Z21	X22	Y22	Z22	X23	Y23	Z23	X24	Y24	Z24	X25	Y25	Z25	X26	Y26	Z26	X27	Y27	Z27	X28	Y28	Z28	X29	Y29	Z29	X30	Y30	Z30	X31	Y31	Z31	X32	Y32	Z32	X33	Y33	Z33	X34	Y34	Z34	X35	Y35	Z35	
751	3.7550	-0.299207	1.385632	-0.584251	-0.237620	1.369848	-0.763781	-0.217279	1.345725	-0.416163	-0.173659	1.342074	-0.593828	-0.128847	0.946103	-0.478910	-0.136546	0.940415	-0.697718	-0.200167	0.985084	-0.439630	-0.192975	0.989384	-0.730813	-0.299527	0.974997	-0.529524	-0.300326	0.974215	-0.634631	-0.300941	0.983327	-0.585320	-0.233675	0.743740	-0.414295	-0.211263	0.688815	-0.410146	-0.151236	0.709682	-0.397925	-0.166678	0.769564	-0.399310	-0.246532	0.359723	-0.388995	-0.264421	0.321222	-0.396060	-0.206629	0.302095	-0.396636	-0.192928	0.340089	-0.394411	-0.373746	0.112624	-0.445825	-0.248872	0.030466	-0.378436	-0.203772	0.035767	-0.450737	-0.179641	0.027634	-0.449268	-0.222184	0.714766	-0.759171	-0.190469	0.661980	-0.758556	-0.131886	0.690535	-0.755646	-0.156480	0.745078	-0.756793	-0.278185	0.327048	-0.753794	-0.298631	0.292299	-0.750701	-0.241262	0.266752	-0.748821	-0.227550	0.308496	-0.752723	-0.400868	0.098734	-0.703167	-0.266152	0.033227	-0.765589	-0.226713	0.036201	-0.698603	-0.202879	0.027242	-0.701367	
752	3.7600	-0.299456	1.390955	-0.583810	-0.237686	1.376201	-0.762812	-0.218124	1.352214	-0.416025	-0.173989	1.348072	-0.593249	-0.128142	0.951833	-0.478587	-0.135457	0.946244	-0.696955	-0.199181	0.990969	-0.439367	-0.191495	0.996104	-0.729832	-0.298562	0.980493	-0.529220	-0.299193	0.979865	-0.634336	-0.300026	0.988772	-0.585005	-0.233498	0.749536	-0.413784	-0.211532	0.694449	-0.409570	-0.151329	0.714915	-0.397539	-0.166341	0.774877	-0.398944	-0.247240	0.363900	-0.388053	-0.264757	0.325211	-0.394942	-0.206792	0.306613	-0.395500	-0.193495	0.344746	-0.393384	-0.371535	0.115963	-0.444392	-0.247907	0.030950	-0.378211	-0.203604	0.035774	-0.450719	-0.179756	0.027671	-0.449420	-0.222121	0.720647	-0.759037	-0.190878	0.667577	-0.758229	-0.132067	0.695615	-0.754934	-0.156166	0.750371	-0.756227	-0.279534	0.331264	-0.753752	-0.299574	0.296247	-0.750702	-0.241908	0.271332	-0.749036	-0.228674	0.313214	-0.752816	-0.399015	0.102055	-0.703596	-0.265237	0.034006	-0.765408	-0.226460	0.036190	-0.698438	-0.202882	0.027252	-0.701289	
753	3.7650	-0.299684	1.396283	-0.583371	-0.237679	1.382573	-0.761778	-0.219032	1.358727	-0.415848	-0.174273	1.354059	-0.592638	-0.127433	0.957602	-0.478357	-0.134444	0.952070	-0.696233	-0.198015	0.996977	-0.439139	-0.190076	1.002818	-0.728846	-0.297552	0.986090	-0.528855	-0.298076	0.985544	-0.633990	-0.299103	0.994275	-0.584640	-0.233386	0.755405	-0.413184	-0.211851	0.700157	-0.408879	-0.151469	0.720224	-0.397069	-0.166052	0.780273	-0.398544	-0.248041	0.368112	-0.387130	-0.265150	0.329217	-0.393811	-0.207002	0.311188	-0.394252	-0.194131	0.349478	-0.392293	-0.369179	0.119341	-0.443013	-0.246958	0.031401	-0.377990	-0.203421	0.035831	-0.450635	-0.179875	0.027730	-0.449526	-0.222146	0.726600	-0.758909	-0.191383	0.673248	-0.757962	-0.132348	0.700757	-0.754349	-0.155939	0.755734	-0.755738	-0.280834	0.335478	-0.753776	-0.300448	0.300175	-0.750739	-0.242479	0.275925	-0.749329	-0.229743	0.317938	-0.753001	-0.397004	0.105431	-0.703933	-0.264289	0.034823	-0.765272	-0.226162	0.036203	-0.698244	-0.202876	0.027268	-0.701212	
754	3.7700	-0.299879	1.401579	-0.582936	-0.237591	1.388910	-0.760685	-0.219940	1.365222	-0.415654	-0.174513	1.359997	-0.591996	-0.126735	0.963373	-0.478211	-0.133508	0.957840	-0.695562	-0.196717	1.003039	-0.438938	-0.188735	1.009453	-0.727877	-0.296497	0.991744	-0.528439	-0.296985	0.991210	-0.633591	-0.298175	0.999798	-0.584233	-0.233333	0.761312	-0.412497	-0.212211	0.705897	-0.408068	-0.151654	0.725587	-0.396511	-0.165810	0.785714	-0.398113	-0.248919	0.372321	-0.386230	-0.265594	0.333202	-0.392684	-0.207258	0.315798	-0.392931	-0.194832	0.354245	-0.391160	-0.366652	0.122699	-0.441784	-0.246028	0.031830	-0.377785	-0.203187	0.035939	-0.450482	-0.179986	0.027814	-0.449558	-0.222246	0.732597	-0.758785	-0.191968	0.678967	-0.757753	-0.132706	0.705938	-0.753890	-0.155783	0.761135	-0.755326	-0.282070	0.339650	-0.753856	-0.301231	0.304056	-0.750788	-0.242966	0.280492	-0.749679	-0.230740	0.322631	-0.753263	-0.394843	0.108853	-0.704193	-0.263307	0.035663	-0.765176	-0.225819	0.036237	-0.698023	-0.202854	0.027293	-0.701137	
755	3.7750	-0.300032	1.406819	-0.582504	-0.237432	1.395169	-0.759553	-0.220820	1.371642	-0.415460	-0.174713	1.365855	-0.591326	-0.126058	0.969109	-0.478133	-0.132647	0.963510	-0.694941	-0.195338	1.009090	-0.438747	-0.187487	1.015952	-0.726932	-0.295400	0.997427	-0.527978	-0.295921	0.996835	-0.633151	-0.297243	1.005311	-0.583787	-0.233332	0.767213	-0.411725	-0.212599	0.711645	-0.407151	-0.151872	0.730961	-0.395874	-0.165609	0.791166	-0.397656	-0.249865	0.376492	-0.385373	-0.266072	0.337165	-0.391547	-0.207549	0.320404	-0.391551	-0.195581	0.359001	-0.390000	-0.363988	0.126071	-0.440672	-0.245111	0.032264	-0.377616	-0.202865	0.036121	-0.450257	-0.180068	0.027928	-0.449495	-0.222407	0.738611	-0.758660	-0.192614	0.684708	-0.757598	-0.133123	0.711141	-0.753556	-0.155691	0.766550	-0.754987	-0.283218	0.343741	-0.753946	-0.301919	0.307862	-0.750836	-0.243368	0.284999	-0.750064	-0.231660	0.327266	-0.753582	-0.392533	0.112299	-0.704373	-0.262296	0.036517	-0.765121	-0.225429	0.036289	-0.697782	-0.202810	0.027332	-0.701062	
756	3.7800	-0.300140	1.411979	-0.582069	-0.237193	1.401313	-0.758394	-0.221626	1.377951	-0.415311	-0.174864	1.371610	-0.590630	-0.125414	0.974768	-0.478116	-0.131860	0.969044	-0.694364	-0.193920	1.015077	-0.438565	-0.186342	1.022263	-0.726019	-0.294273	1.003106	-0.527475	-0.294897	1.002390	-0.632673	-0.296316	1.010789	-0.583305	-0.233375	0.773064	-0.410879	-0.213010	0.717365	-0.406136	-0.152113	0.736312	-0.395170	-0.165443	0.796594	-0.397178	-0.250863	0.380594	-0.384569	-0.266575	0.341066	-0.390458	-0.207869	0.324976	-0.390156	-0.196378	0.363740	-0.388843	-0.361230	0.129486	-0.439642	-0.244175	0.032744	-0.377504	-0.202424	0.036394	-0.449962	-0.180095	0.028068	-0.449316	-0.222611	0.744609	-0.758523	-0.193299	0.690441	-0.757487	-0.133584	0.716345	-0.753335	-0.155650	0.771953	-0.754711	-0.284273	0.347721	-0.754030	-0.302507	0.311571	-0.750863	-0.243680	0.289419	-0.750464	-0.232497	0.331818	-0.753934	-0.390079	0.115743	-0.704475	-0.261260	0.037378	-0.765095	-0.225008	0.036342	-0.697531	-0.202751	0.027376	-0.700987	
757	3.7850	-0.300203	1.417048	-0.581638	-0.236869	1.407306	-0.757219	-0.222374	1.384119	-0.415183	-0.174991	1.377228	-0.589915	-0.124804	0.980303	-0.478142	-0.131146	0.974407	-0.693829	-0.192507	1.020959	-0.438391	-0.185313	1.028341	-0.725142	-0.293129	1.008753	-0.526935	-0.293916	1.007856	-0.632152	-0.295403	1.016215	-0.582787	-0.233450	0.778828	-0.409978	-0.213438	0.722999	-0.405041	-0.152373	0.741603	-0.394408	-0.165307	0.801958	-0.396682	-0.251896	0.384601	-0.383820	-0.267087	0.344878	-0.389462	-0.208207	0.329490	-0.388780	-0.197197	0.368411	-0.387703	-0.358381	0.132921	-0.438652	-0.243190	0.033319	-0.377448	-0.201848	0.036780	-0.449595	-0.180043	0.028253	-0.448997	-0.222848	0.750558	-0.758377	-0.194000	0.696135	-0.757416	-0.134074	0.721522	-0.753207	-0.155658	0.777323	-0.754491	-0.285229	0.351574	-0.754087	-0.302990	0.315172	-0.750849	-0.243898	0.293742	-0.750863	-0.233246	0.336274	-0.754297	-0.387489	0.119170	-0.704507	-0.260200	0.038249	-0.765080	-0.224567	0.036401	-0.697292	-0.202673	0.027429	-0.700920	
758	3.7900	-0.300220	1.422003	-0.581210	-0.236471	1.413119	-0.756038	-0.223082	1.390147	-0.415008	-0.175098	1.382677	-0.589181	-0.124233	0.985669	-0.478197	-0.130498	0.979566	-0.693324	-0.191141	1.026682	-0.438214	-0.184400	1.034153	-0.724305	-0.291980	1.014324	-0.526373	-0.292977	1.013224	-0.631606	-0.294509	1.021569	-0.582240	-0.233549	0.784476	-0.409043	-0.213870	0.728519	-0.403893	-0.152645	0.746794	-0.393599	-0.165200	0.807216	-0.396166	-0.252949	0.388510	-0.383138	-0.267605	0.348580	-0.388572	-0.208557	0.333921	-0.387444	-0.198028	0.372992	-0.386598	-0.355477	0.136351	-0.437627	-0.242090	0.034054	-0.377450	-0.201143	0.037290	-0.449145	-0.179895	0.028498	-0.448517	-0.223114	0.756414	-0.758213	-0.194699	0.701757	-0.757379	-0.134571	0.726654	-0.753164	-0.155713	0.782623	-0.754312	-0.286082	0.355294	-0.754089	-0.303364	0.318654	-0.750776	-0.244021	0.297943	-0.751240	-0.233906	0.340613	-0.754646	-0.384778	0.122555	-0.704477	-0.259116	0.039144	-0.765066	-0.224120	0.036459	-0.697080	-0.202578	0.027492	-0.700870	
759	3.7950	-0.300197	1.426829	-0.580778	-0.236001	1.418728	-0.754860	-0.223745	1.395988	-0.414798	-0.175178	1.387939	-0.588429	-0.123703	0.990822	-0.478267	-0.129916	0.984504	-0.692843	-0.189849	1.032206	-0.438036	-0.183602	1.039677	-0.723509	-0.290844	1.019787	-0.525792	-0.292082	1.018477	-0.631048	-0.293648	1.026837	-0.581673	-0.233671	0.789967	-0.408098	-0.214304	0.733885	-0.402734	-0.152928	0.751838	-0.392760	-0.165118	0.812327	-0.395623	-0.254003	0.392298	-0.382535	-0.268105	0.352176	-0.387791	-0.208905	0.338252	-0.386165	-0.198850	0.377466	-0.385534	-0.352559	0.139750	-0.436559	-0.240828	0.035020	-0.377489	-0.200317	0.037974	-0.448618	-0.179632	0.028824	-0.447871	-0.223404	0.762129	-0.758021	-0.195388	0.707265	-0.757367	-0.135074	0.731709	-0.753192	-0.155816	0.787828	-0.754164	-0.286821	0.358858	-0.754013	-0.303625	0.321997	-0.750642	-0.244035	0.302013	-0.751580	-0.234471	0.344819	-0.754952	-0.381972	0.125872	-0.704392	-0.258014	0.040083	-0.765048	-0.223668	0.036533	-0.696910	-0.202460	0.027566	-0.700843	
